<svg width="38" height="30" viewBox="0 0 38 30" fill="none" xmlns="http://www.w3.org/2000/svg">
<path d="M5.7 3.75C5.7 2.71289 6.54906 1.875 7.6 1.875H9.5C10.5509 1.875 11.4 2.71289 11.4 3.75V13.125V16.875V26.25C11.4 27.2871 10.5509 28.125 9.5 28.125H7.6C6.54906 28.125 5.7 27.2871 5.7 26.25V22.5H3.8C2.74906 22.5 1.9 21.6621 1.9 20.625V16.875C0.849062 16.875 0 16.0371 0 15C0 13.9629 0.849062 13.125 1.9 13.125V9.375C1.9 8.33789 2.74906 7.5 3.8 7.5H5.7V3.75ZM32.3 3.75V7.5H34.2C35.2509 7.5 36.1 8.33789 36.1 9.375V13.125C37.1509 13.125 38 13.9629 38 15C38 16.0371 37.1509 16.875 36.1 16.875V20.625C36.1 21.6621 35.2509 22.5 34.2 22.5H32.3V26.25C32.3 27.2871 31.4509 28.125 30.4 28.125H28.5C27.4491 28.125 26.6 27.2871 26.6 26.25V16.875V13.125V3.75C26.6 2.71289 27.4491 1.875 28.5 1.875H30.4C31.4509 1.875 32.3 2.71289 32.3 3.75ZM24.7 13.125V16.875H13.3V13.125H24.7Z" fill="#B4D239"/>
</svg>
