<svg width="24" height="32" viewBox="0 0 24 32" fill="none" xmlns="http://www.w3.org/2000/svg">
<g clip-path="url(#clip0_150_69)">
<path d="M12 0C9.3875 0 7.1625 1.66875 6.34375 4H4C1.79375 4 0 5.79375 0 8V28C0 30.2062 1.79375 32 4 32H20C22.2062 32 24 30.2062 24 28V8C24 5.79375 22.2062 4 20 4H17.6562C16.8375 1.66875 14.6125 0 12 0ZM12 4C12.5304 4 13.0391 4.21071 13.4142 4.58579C13.7893 4.96086 14 5.46957 14 6C14 6.53043 13.7893 7.03914 13.4142 7.41421C13.0391 7.78929 12.5304 8 12 8C11.4696 8 10.9609 7.78929 10.5858 7.41421C10.2107 7.03914 10 6.53043 10 6C10 5.46957 10.2107 4.96086 10.5858 4.58579C10.9609 4.21071 11.4696 4 12 4ZM4.5 17C4.5 16.6022 4.65804 16.2206 4.93934 15.9393C5.22064 15.658 5.60218 15.5 6 15.5C6.39782 15.5 6.77936 15.658 7.06066 15.9393C7.34196 16.2206 7.5 16.6022 7.5 17C7.5 17.3978 7.34196 17.7794 7.06066 18.0607C6.77936 18.342 6.39782 18.5 6 18.5C5.60218 18.5 5.22064 18.342 4.93934 18.0607C4.65804 17.7794 4.5 17.3978 4.5 17ZM11 16H19C19.55 16 20 16.45 20 17C20 17.55 19.55 18 19 18H11C10.45 18 10 17.55 10 17C10 16.45 10.45 16 11 16ZM4.5 23C4.5 22.6022 4.65804 22.2206 4.93934 21.9393C5.22064 21.658 5.60218 21.5 6 21.5C6.39782 21.5 6.77936 21.658 7.06066 21.9393C7.34196 22.2206 7.5 22.6022 7.5 23C7.5 23.3978 7.34196 23.7794 7.06066 24.0607C6.77936 24.342 6.39782 24.5 6 24.5C5.60218 24.5 5.22064 24.342 4.93934 24.0607C4.65804 23.7794 4.5 23.3978 4.5 23ZM10 23C10 22.45 10.45 22 11 22H19C19.55 22 20 22.45 20 23C20 23.55 19.55 24 19 24H11C10.45 24 10 23.55 10 23Z" fill="#A05C78"/>
</g>
<defs>
<clipPath id="clip0_150_69">
<rect width="24" height="32" fill="white"/>
</clipPath>
</defs>
</svg>
